<?xml version="1.0" encoding="utf-8"?>
<!-- Generator: Adobe Illustrator 19.0.0, SVG Export Plug-In . SVG Version: 6.00 Build 0)  -->
<svg version="1.1" id="Layer_1" xmlns="http://www.w3.org/2000/svg" xmlns:xlink="http://www.w3.org/1999/xlink" x="0px" y="0px"
	 viewBox="0 0 512 512" style="enable-background:new 0 0 512 512;" xml:space="preserve">
<g id="XMLID_2_">
	<path id="XMLID_19_" style="fill:#2CDD5B" d="M512,296.7c0,42.7-34.6,77.3-77.2,77.3H77.2C34.6,374,0,339.4,0,296.7V77.2C0,34.6,34.6,0,77.2,0h357.6
		C477.4,0,512,34.6,512,77.2V296.7z M487.6,77.2c0-29.2-23.7-52.8-52.8-52.8H77.2c-29.2,0-52.9,23.7-52.9,52.8v219.5
		c0,29.2,23.7,52.9,52.9,52.9h357.6c29.2,0,52.8-23.7,52.8-52.9V77.2z M487.6,77.2"/>
	<path id="XMLID_15_" style="fill:#2CDD5B" d="M424,374H87.5c-49.6,0-86.9-40.2-86.9-93.5c0-6.7,5.4-12.2,12.2-12.2h486.1c6.7,0,12.2,5.5,12.2,12.2
		C511,333.8,473.6,374,424,374L424,374z M25.8,292.7c4.8,33.6,29.2,56.9,61.7,56.9H424c32.5,0,57-23.3,61.7-56.9H25.8z M25.8,292.7"
		/>
	<path id="XMLID_12_" style="fill:#2CDD5B" d="M278.7,246c-3.1,0-6.3-1.2-8.7-3.6c-4.8-4.8-4.8-12.5,0-17.2l67.7-67.7c4.8-4.8,12.5-4.8,17.3,0
		c4.8,4.8,4.8,12.5,0,17.2l-67.7,67.7C284.9,244.9,281.8,246,278.7,246L278.7,246z M278.7,246"/>
	<path id="XMLID_9_" style="fill:#2CDD5B" d="M173.7,257.5c-3.1,0-6.2-1.2-8.6-3.6c-4.8-4.8-4.8-12.5,0-17.2L311.8,89.9c4.8-4.8,12.5-4.8,17.2,0
		c4.8,4.8,4.8,12.5,0,17.2L182.3,253.9C180,256.3,176.8,257.5,173.7,257.5L173.7,257.5z M173.7,257.5"/>
	<path id="XMLID_6_" style="fill:#2CDD5B" d="M256,443.1c-6.7,0-12.2-5.5-12.2-12.2v-65c0-6.7,5.5-12.2,12.2-12.2c6.7,0,12.2,5.5,12.2,12.2v65
		C268.2,437.6,262.7,443.1,256,443.1L256,443.1z M256,443.1"/>
	<path id="XMLID_3_" style="fill:#2CDD5B" d="M332.9,512.8c-6.7,0-12.2-5.4-12.2-12.2c0-28.9-29.8-52.5-66.5-52.5c-36.7,0-66.5,23.6-66.5,52.5
		c0,6.7-5.5,12.2-12.2,12.2c-6.7,0-12.2-5.4-12.2-12.2c0-42.4,40.8-76.9,90.9-76.9c50.1,0,90.9,34.5,90.9,76.9
		C345.1,507.4,339.6,512.8,332.9,512.8L332.9,512.8z M332.9,512.8"/>
</g>
</svg>
