<?xml version="1.0" encoding="utf-8"?>
<!-- Generator: Adobe Illustrator 19.0.0, SVG Export Plug-In . SVG Version: 6.00 Build 0)  -->
<svg version="1.1" id="Layer_1" xmlns="http://www.w3.org/2000/svg" xmlns:xlink="http://www.w3.org/1999/xlink" x="0px" y="0px"
	 viewBox="0 0 512 512" style="enable-background:new 0 0 512 512;" xml:space="preserve">
<g>
	<path style="fill:#2CDD5B" d="M500.4,70.9H12.6C6.2,70.9,1,76.1,1,82.5v348.4c0,6.4,5.2,11.6,11.6,11.6h487.7c6.4,0,11.6-5.2,11.6-11.6V82.5
		C512,76.1,506.8,70.9,500.4,70.9L500.4,70.9z M488.8,391.2L344.9,247.4l-16.4,16.4L484,419.3H29l155.5-155.6l-16.4-16.4L24.3,391.2
		V94.2h464.5V391.2z M488.8,391.2"/>
	<path style="fill:#2CDD5B" d="M465.3,94.2L256.5,302.9L47.7,94.2H24.3v9.3l224,224.1c4.5,4.5,11.9,4.5,16.4,0l224.1-224.1v-9.3H465.3z M465.3,94.2"/>
</g>
</svg>
