<?xml version="1.0" encoding="utf-8"?>
<!-- Generator: Adobe Illustrator 19.0.0, SVG Export Plug-In . SVG Version: 6.00 Build 0)  -->
<svg version="1.1" id="Layer_1" xmlns="http://www.w3.org/2000/svg" xmlns:xlink="http://www.w3.org/1999/xlink" x="0px" y="0px"
	 viewBox="0 0 512 512" style="enable-background:new 0 0 512 512;" xml:space="preserve">
<g id="XMLID_16_">
	<path id="XMLID_33_" style="fill:#2CDD5B" d="M420.2,434.2c0,42.5-34.4,77-76.9,77H148.9c-42.5,0-77-34.4-77-77V77.8c0-42.5,34.4-77,77-77h194.4
		c42.5,0,76.9,34.4,76.9,77V434.2z M395.9,77.8c0-29.1-23.6-52.6-52.6-52.6H148.9c-29.1,0-52.7,23.6-52.7,52.6v356.5
		c0,29.1,23.6,52.7,52.7,52.7h194.4c29.1,0,52.6-23.6,52.6-52.7V77.8z M395.9,77.8"/>
	<path id="XMLID_29_" style="fill:#2CDD5B" d="M420.2,426.1c0,6.7-5.4,12.1-12.1,12.1h-324c-6.7,0-12.1-5.4-12.1-12.1V77.8c0-6.7,5.4-12.1,12.1-12.1h324
		c6.7,0,12.1,5.4,12.1,12.1V426.1z M96.2,414h299.7V89.9H96.2V414z M96.2,414"/>
	<path id="XMLID_26_" style="fill:#2CDD5B" d="M264.5,47.1c0,9-7.2,16.2-16.2,16.2c-8.9,0-16.2-7.2-16.2-16.2c0-8.9,7.3-16.2,16.2-16.2
		C257.3,30.9,264.5,38.1,264.5,47.1L264.5,47.1z M264.5,47.1"/>
	<path id="XMLID_23_" style="fill:#2CDD5B" d="M271,470.7h-40.5c-6.7,0-12.1-5.5-12.1-12.1c0-6.7,5.4-12.2,12.1-12.2H271c6.7,0,12.1,5.5,12.1,12.2
		C283.1,465.2,277.7,470.7,271,470.7L271,470.7z M271,470.7"/>
	<path id="XMLID_20_" style="fill:#2CDD5B" d="M146.9,354.5c-3.1,0-6.2-1.2-8.6-3.6c-4.7-4.7-4.7-12.4,0-17.2l185.4-185.6c4.7-4.7,12.5-4.7,17.2,0
		c4.7,4.8,4.7,12.5,0,17.2L155.5,351C153.1,353.4,150,354.5,146.9,354.5L146.9,354.5z M146.9,354.5"/>
	<path id="XMLID_17_" style="fill:#2CDD5B" d="M249.1,343.2c-3.1,0-6.2-1.2-8.6-3.6c-4.7-4.7-4.7-12.4,0-17.2l53.7-53.8c4.7-4.7,12.5-4.7,17.2,0
		c4.7,4.7,4.7,12.5,0,17.2l-53.8,53.7C255.3,342,252.2,343.2,249.1,343.2L249.1,343.2z M249.1,343.2"/>
</g>
</svg>
