<?xml version="1.0" encoding="utf-8"?>
<!-- Generator: Adobe Illustrator 19.0.0, SVG Export Plug-In . SVG Version: 6.00 Build 0)  -->
<svg version="1.1" id="Layer_1" xmlns="http://www.w3.org/2000/svg" xmlns:xlink="http://www.w3.org/1999/xlink" x="0px" y="0px"
	 viewBox="0 0 256 256" style="enable-background:new 0 0 256 256;" xml:space="preserve">
<style type="text/css">
	.st0{clip-path:url(#XMLID_12_);}
</style>
<g id="XMLID_2_">
	<g id="XMLID_3_">
		<defs>
			<rect id="XMLID_4_" width="256" height="256.3"/>
		</defs>
		<clipPath id="XMLID_12_">
			<use xlink:href="#XMLID_4_"  style="overflow:visible;"/>
		</clipPath>
		<path id="XMLID_5_" class="st0" style="fill:#2CDD5B" d="M247.1,52L52,247.1c-5.7,5.7-13.3,8.8-21.4,8.8c-8.1,0-15.7-3.1-21.4-8.8l-0.4-0.4
			C3.1,241,0,233.4,0,225.3c0-8.1,3.1-15.7,8.9-21.4L203.9,8.9c5.7-5.7,13.3-8.9,21.4-8.9c8.1,0,15.7,3.1,21.4,8.9l0.4,0.4
			C258.9,21.1,258.9,40.2,247.1,52L247.1,52z M255.7,205.3c1,13.2-3.3,25.8-12.3,35.5c-8.8,9.6-21.3,15-34.3,15
			c-1.2,0-2.5,0-3.8-0.1c-22.6-1.8-41-20.2-42.8-42.8c-1-13.2,3.3-25.8,12.3-35.5c9.7-10.5,23.8-16,38.1-14.9
			C235.5,164.3,253.9,182.7,255.7,205.3L255.7,205.3z M194.9,210.3c0.5,6.9,6.1,12.5,13,13c4.5,0.3,8.6-1.3,11.6-4.5
			c2.7-3,4-6.8,3.7-10.8c-0.5-6.9-6.1-12.5-13-13c-0.4,0-0.8,0-1.2,0c-4,0-7.7,1.6-10.5,4.6C195.9,202.4,194.6,206.2,194.9,210.3
			L194.9,210.3z M0.3,50.6c-1-13.2,3.3-25.8,12.3-35.5c9.7-10.5,23.8-16,38.1-14.9c22.6,1.8,41.1,20.2,42.8,42.8
			c1,13.2-3.3,25.8-12.3,35.5c-8.8,9.5-21.3,15-34.3,15h0c-1.2,0-2.5,0-3.8-0.1C20.5,91.7,2.1,73.3,0.3,50.6L0.3,50.6z M61.1,45.7
			c-0.5-6.9-6.1-12.5-13-13c-0.4,0-0.8,0-1.2,0c-4,0-7.7,1.6-10.5,4.6c-2.7,3-4.1,6.8-3.7,10.8c0.5,6.9,6.1,12.5,13,13
			c4.5,0.3,8.6-1.3,11.6-4.5C60.1,53.6,61.4,49.7,61.1,45.7L61.1,45.7z M61.1,45.7"/>
	</g>
</g>
</svg>
