<?xml version="1.0" encoding="utf-8"?>
<!-- Generator: Adobe Illustrator 19.0.0, SVG Export Plug-In . SVG Version: 6.00 Build 0)  -->
<svg version="1.1" id="Layer_1" xmlns="http://www.w3.org/2000/svg" xmlns:xlink="http://www.w3.org/1999/xlink" x="0px" y="0px"
	 viewBox="0 0 256 256" style="enable-background:new 0 0 256 256;" xml:space="preserve">
<style type="text/css">
	.st0{clip-path:url(#XMLID_10_);fill:#2CDD5B;}
	.st1{fill:#D8D8D8;}
</style>
<g id="XMLID_8_">
	<g id="XMLID_12_">
		<defs>
			<rect id="XMLID_3_" width="256" height="256.5"/>
		</defs>
		<clipPath id="XMLID_10_">
			<use xlink:href="#XMLID_3_"  style="overflow:visible;"/>
		</clipPath>
		<path id="XMLID_14_" class="st0" style="fill:#2CDD5B" d="M239.5,59.3L86.8,1.7C80-0.9,72.5-0.5,66,2.6L11.4,29c-9.7,4.7-14,16.1-9.8,26l23.6,55.8
			c2.8,6.6,8.2,11.8,15,14.3l152.7,57.6c13.6,5.1,28.9-1.5,34-15.1l28-74.2C260,79.8,253.1,64.4,239.5,59.3L239.5,59.3z M84.8,71.6
			c-4,10.7-16,16-26.6,12c-10.7-4-16.1-16-12-26.6c4-10.7,15.9-16.1,26.6-12C83.4,49,88.8,60.9,84.8,71.6L84.8,71.6z M84.8,71.6"/>
	</g>
	<path id="XMLID_9_" class="st1" style="fill:#D8D8D8" d="M35.4,137.9c-3.2-1.2-6.3-2.9-9.1-4.9l55.9,104.8c6.8,12.8,22.7,17.9,35.5,11l70-37.3
		c5.6-3,9.6-7.9,11.8-13.4c-3.9-0.3-7.8-1.1-11.5-2.5L35.4,137.9z M35.4,137.9"/>
</g>
</svg>
