<?xml version="1.0" encoding="utf-8"?>
<!-- Generator: Adobe Illustrator 19.0.0, SVG Export Plug-In . SVG Version: 6.00 Build 0)  -->
<svg version="1.1" id="Layer_1" xmlns="http://www.w3.org/2000/svg" xmlns:xlink="http://www.w3.org/1999/xlink" x="0px" y="0px"
	 viewBox="0 0 512 512" style="enable-background:new 0 0 512 512;" xml:space="preserve">
<style type="text/css">
	.st0{clip-path:url(#XMLID_12_);}
</style>
<g id="XMLID_2_">
	<g id="XMLID_3_">
		<defs>
			<rect id="XMLID_4_" width="510" height="512"/>
		</defs>
		<clipPath id="XMLID_12_">
			<use xlink:href="#XMLID_4_"  style="overflow:visible;"/>
		</clipPath>
		<path id="XMLID_5_" class="st0" style="fill:#2CDD5B" d="M508.9,47.6c-1.3-3.1-4.3-5.1-7.6-5.1h-25.5c-4.4,0-8.4-4-8.4-8.4V8.7c0-3.3-2-6.4-5.1-7.6
			c-3.1-1.3-6.6-0.6-9,1.8L411.2,45c-1.5,1.5-2.4,3.6-2.4,5.8v25.5c0,3.7,0.9,7.4,2.5,10.7L371,127.3
			c-39.5-36.8-92.6-59.2-150.7-59.2c-59,0-114.4,23.1-155.9,65C22.9,175,0,230.5,0,289.6c0,59,22.9,114.5,64.4,155.9
			c41.5,41.5,96.8,64.4,155.9,64.4c59.1,0,114.7-22.9,156.5-64.4c41.9-41.6,65-97,65-155.9c0-58.1-22.6-111-59.2-150.7l40.3-40.3
			c3.3,1.6,6.9,2.5,10.7,2.5h25.5c2.2,0,4.3-0.9,5.8-2.4l42.2-42.2C509.4,54.3,510.2,50.7,508.9,47.6L508.9,47.6z M425.4,289.6
			c0,112.4-92,203.8-205,203.8C108,493.5,16.5,402,16.5,289.6c0-113,91.5-205,203.8-205c53.6,0,102.3,20.7,139,54.4l-48.4,48.4
			c-23.9-21.1-55.5-33.8-90.6-33.8c-36.3,0-70.4,14-96.1,39.4c-25.8,25.6-39.9,59.9-39.9,96.5c0,74.9,61,136,136,136
			c36.6,0,71-14.2,96.5-39.9c25.4-25.6,39.4-59.8,39.4-96.1c0-35.1-12.7-66.7-33.8-90.6l48.4-48.4
			C404.7,187.3,425.4,236.2,425.4,289.6L425.4,289.6z M223.4,286.6c1.7,1.7,3.7,2.4,5.8,2.4c2.1,0,4.2-0.8,5.8-2.4l20.8-20.8
			c4.5,6.8,7.3,15.1,7.3,23.9c0,23.7-19.3,42.8-42.8,42.8c-23.6,0-42.8-19.3-42.8-42.8c0-23.6,19.3-42.8,42.8-42.8
			c8.8,0,17.1,2.6,23.9,7.3l-20.8,20.8C220.2,278.1,220.2,283.4,223.4,286.6L223.4,286.6z M256,242.3c-9.9-7.5-22.3-12-35.7-12
			c-32.7,0-59.3,26.6-59.3,59.3c0,32.7,26.6,59.3,59.3,59.3c32.7,0,59.3-26.6,59.3-59.3c0-13.4-4.5-25.8-12-35.7l43.1-43.1
			c18.2,20.9,28.9,48.3,28.9,78.8c0,65.9-53.6,119.5-119.5,119.5c-65.9,0-119.5-53.6-119.5-119.5c0-65.9,53.6-119.5,119.5-119.5
			c30.5,0,57.9,10.9,78.8,28.9L256,242.3z M455.7,84.7h-22.1c-4.4,0-8.4-4-8.4-8.4V54.2l25.6-25.6v5.6c0,13.4,11.3,24.9,24.9,24.9
			h5.6L455.7,84.7z M455.7,84.7"/>
	</g>
</g>
</svg>
