<?xml version="1.0" encoding="iso-8859-1"?>
<!-- Generator: Adobe Illustrator 19.0.0, SVG Export Plug-In . SVG Version: 6.00 Build 0)  -->
<svg xmlns="http://www.w3.org/2000/svg" xmlns:xlink="http://www.w3.org/1999/xlink" version="1.1" id="Layer_1" x="0px" y="0px" viewBox="0 0 512 512" style="enable-background:new 0 0 512 512;" xml:space="preserve" width="512px" height="512px">
<g transform="translate(1 1)">
	<g>
		<g>
			<path d="M442.444,380.831c0.693-0.346,1.313-0.8,1.861-1.333c5.998-1.541,10.289-6.861,10.289-13.419V17.224     C454.593,7.678,446.783-1,436.37-1H142.186c-47.729,0-86.78,39.051-86.78,86.78v355.797h0.025     c-0.057,13.512,3.689,26.581,11.256,38.183C79.705,499.719,101.4,511,124.83,511h320.217c4.339,0,7.81-2.603,8.678-7.81     c1.736-4.339-0.868-8.678-4.339-10.414c-8.678-4.339-24.298-25.166-24.298-51.2C425.088,410.336,435.502,385.169,442.444,380.831     z M72.763,85.78c0-38.183,31.241-69.424,69.424-69.424H436.37c0.868,0,0.868,0.868,0.868,0.868v346.251h-299.39h-4.339     c-26.034,0-46.861,12.149-60.746,29.505V85.78z M124.83,493.644c-17.356,0-33.844-8.678-43.39-23.43     c-9.546-14.753-11.281-33.844-3.471-51.2c9.546-23.43,32.976-38.183,59.878-38.183h282.902     c-4.013,7.224-7.086,16.312-9.244,26.047c-0.102-0.003-0.199-0.013-0.302-0.013H307.068c-5.207,0-8.678,3.471-8.678,8.678     c0,5.207,3.471,8.678,8.678,8.678h101.621c-0.63,5.879-0.956,11.744-0.956,17.356c0,2.962,0.158,5.852,0.433,8.678h-75.064     c-5.207,0-8.678,3.471-8.678,8.678c0,5.207,3.471,8.678,8.678,8.678h78.102c0.148,0,0.288-0.013,0.433-0.018     c3.189,10.319,8.039,19.164,13.452,26.052H124.83z" fill="#91DC5A"/>
			<path d="M154.336,198.593h201.329c16.488,0,29.505-13.017,29.505-29.505v-60.746c0-17.356-13.885-31.241-31.241-31.241H156.071     c-17.356,0-31.241,13.885-31.241,31.241v60.746C124.83,185.576,137.847,198.593,154.336,198.593z M142.186,108.342     c0-7.81,6.075-13.885,13.885-13.885h197.858c7.81,0,13.885,6.075,13.885,13.885v60.746c0,6.942-5.207,12.149-12.149,12.149     H154.336c-6.942,0-12.149-5.207-12.149-12.149V108.342z" fill="#91DC5A"/>
			<path d="M220.288,129.169h78.102c5.207,0,8.678-3.471,8.678-8.678s-3.471-8.678-8.678-8.678h-78.102     c-5.207,0-8.678,3.471-8.678,8.678S215.081,129.169,220.288,129.169z" fill="#91DC5A"/>
			<path d="M185.576,163.881h138.847c5.207,0,8.678-3.471,8.678-8.678s-3.471-8.678-8.678-8.678H185.576     c-5.207,0-8.678,3.471-8.678,8.678S180.37,163.881,185.576,163.881z" fill="#91DC5A"/>
		</g>
	</g>
</g>
<g>
</g>
<g>
</g>
<g>
</g>
<g>
</g>
<g>
</g>
<g>
</g>
<g>
</g>
<g>
</g>
<g>
</g>
<g>
</g>
<g>
</g>
<g>
</g>
<g>
</g>
<g>
</g>
<g>
</g>
</svg>
