<?xml version="1.0" encoding="iso-8859-1"?>
<!-- Generator: Adobe Illustrator 19.0.0, SVG Export Plug-In . SVG Version: 6.00 Build 0)  -->
<svg xmlns="http://www.w3.org/2000/svg" xmlns:xlink="http://www.w3.org/1999/xlink" version="1.1" id="Layer_1" x="0px" y="0px" viewBox="0 0 512 512" style="enable-background:new 0 0 512 512;" xml:space="preserve" width="512px" height="512px">
<g>
	<g>
		<path d="M94.441,80.017l-5.036-5.036c-3.983-3.983-10.441-3.983-14.425,0c-3.983,3.983-3.983,10.441,0,14.425l5.037,5.036    c1.992,1.992,4.602,2.987,7.212,2.987s5.221-0.995,7.212-2.987C98.423,90.459,98.423,84.001,94.441,80.017z" fill="#91DC5A"/>
	</g>
</g>
<g>
	<g>
		<path d="M256,484.261c-5.633,0-10.199,4.566-10.199,10.199v7.34c0,5.633,4.566,10.199,10.199,10.199    c5.633,0,10.199-4.566,10.199-10.199v-7.34C266.199,488.827,261.633,484.261,256,484.261z" fill="#91DC5A"/>
	</g>
</g>
<g>
	<g>
		<path d="M501.801,245.801h-7.34c-5.633,0-10.199,4.566-10.199,10.199c0,5.633,4.566,10.199,10.199,10.199h7.34    c5.633,0,10.199-4.566,10.199-10.199C512,250.367,507.434,245.801,501.801,245.801z" fill="#91DC5A"/>
	</g>
</g>
<g>
	<g>
		<path d="M463.044,245.801h-35.103c-2.338-39.827-18.266-76.055-43.207-104.111l52.284-52.284c3.983-3.983,3.983-10.441,0-14.425    c-3.983-3.983-10.441-3.983-14.425,0l-52.284,52.284c-28.055-24.94-64.284-40.868-104.11-43.206v-73.86    C266.199,4.566,261.633,0,256,0c-5.633,0-10.199,4.566-10.199,10.199v73.86c-39.827,2.338-76.055,18.266-104.111,43.207    l-24.326-24.326c-3.983-3.983-10.441-3.983-14.425,0c-3.983,3.983-3.983,10.441,0,14.425l24.326,24.326    c-24.94,28.055-40.868,64.284-43.206,104.11h-73.86C4.566,245.801,0,250.367,0,256c0,5.633,4.566,10.199,10.199,10.199h73.86    c2.338,39.827,18.266,76.055,43.207,104.111l-52.284,52.284c-3.983,3.983-3.983,10.441,0,14.425    c1.992,1.992,4.602,2.987,7.212,2.987c2.61,0,5.221-0.995,7.212-2.987l52.284-52.284c28.056,24.94,64.285,40.869,104.111,43.207    v35.102c0,5.633,4.566,10.199,10.199,10.199c5.633,0,10.199-4.566,10.199-10.199v-35.103    c39.827-2.338,76.055-18.266,104.111-43.207l52.284,52.284c1.992,1.992,4.602,2.987,7.212,2.987s5.221-0.995,7.212-2.987    c3.983-3.983,3.983-10.441,0-14.425l-52.284-52.284c24.94-28.056,40.869-64.285,43.207-104.111h35.103    c5.633,0,10.199-4.566,10.199-10.199C473.243,250.366,468.677,245.801,463.044,245.801z M256,407.853    c-83.732,0-151.853-68.122-151.853-151.853S172.268,104.147,256,104.147S407.853,172.268,407.853,256S339.732,407.853,256,407.853    z" fill="#91DC5A"/>
	</g>
</g>
<g>
</g>
<g>
</g>
<g>
</g>
<g>
</g>
<g>
</g>
<g>
</g>
<g>
</g>
<g>
</g>
<g>
</g>
<g>
</g>
<g>
</g>
<g>
</g>
<g>
</g>
<g>
</g>
<g>
</g>
</svg>
