<?xml version="1.0" encoding="utf-8"?>
<!-- Generator: Adobe Illustrator 19.1.0, SVG Export Plug-In . SVG Version: 6.00 Build 0)  -->
<svg xmlns="http://www.w3.org/2000/svg" xmlns:xlink="http://www.w3.org/1999/xlink" version="1.1" id="Layer_1" x="0px" y="0px" viewBox="0 0 64 64" enable-background="new 0 0 64 64" xml:space="preserve" width="512px" height="512px">
<g id="Hammer-and-wrench-outlined_1_">
	<path d="M62.889698,18.3766003L46.9789009,2.4658c-0.7038002-0.7048-1.680603-1.1084001-2.677803-1.1084001H33.1180992   l-3.2236996,3.2228003c-0.9251003,0.9249997-0.9251003,2.4310999,0,3.3561997l9.174902,9.1729012L6.7233005,49.4553986   c-0.7038999,0.7028008-1.091795,1.6377029-1.091795,2.632c0,0.9943008,0.3868952,1.9291,1.091795,2.6330032l1.1112051,1.1111984   c0.7174954,0.7164993,1.6591954,1.0751991,2.6007953,1.0751991c0.9417,0,1.8834-0.3586998,2.5998001-1.0751991   l32.3772964-32.3772011l6.1655998,6.1637001c1.4476013,1.4505005,3.978199,1.449501,5.4258003,0.0009003l5.8858986-5.8838997   C63.5955048,23.0293007,64,22.0534992,64,21.0562992C64,20.0571003,63.5955048,19.0804005,62.889698,18.3766003z    M61.478199,22.3236008l-5.886898,5.8848991c-0.6921005,0.6940002-1.9067001,0.6949997-2.6007957-0.0009995l-6.8723068-6.8705006   h-1.4115982L11.623601,54.4201012c-0.6540956,0.6540985-1.7205,0.6549988-2.3766003,0.0009003l-1.1132002-1.1132011   c-0.3264999-0.3264999-0.5058999-0.7602997-0.5058999-1.2204018c0-0.4610977,0.1794-0.893898,0.5058999-1.2194977   l33.0527992-33.052803v-1.411499L31.3059006,6.5249C31.2094002,6.4284,31.1958008,6.3161998,31.1958008,6.2578001   c0-0.0574999,0.0135994-0.1697001,0.1100998-0.2652001l2.6389008-2.6387999h10.3562965   c0.4718018,0,0.9339027,0.1910999,1.2663002,0.5235l15.9117012,15.9118004   c0.3334999,0.3323994,0.5245018,0.7944984,0.5245018,1.2671986C62.0036011,21.5282001,61.8125992,21.9892006,61.478199,22.3236008z   " fill="#91DC5A"/>
	<path d="M56.6529007,43.6795998c-3.4449997-3.4449005-8.6807022-4.2657013-12.9796028-2.1104012l-5.1722984-5.1722984   c-0.8918991-0.8958015-2.4584923-0.896801-3.3532982-0.0009995l-1.8111954,1.8111992   c-0.8520012,0.8520012-0.8530006,2.2401009,0,3.0940018l5.3028946,5.3029976   c-2.1543007,4.2979012-1.3353996,9.5335999,2.1095009,12.9785995c1.3929977,1.3930016,3.136898,2.3999023,5.0416985,2.9107018   l0.5565987,0.1492004l4.6713066-4.6713028l-3.2227058-3.2216988c-0.348999-0.348999-0.5410004-0.8129997-0.5410004-1.3073006   c0-0.4931984,0.1920013-0.9562988,0.5410004-1.3051987l1.4369011-1.4379005   c0.6833-0.6804008,1.8802986-0.6774979,2.5588036-0.0009003l2.5451965,2.5452003h1.411499l3.9645996-3.9664993   l-0.1491013-0.5565987C59.0528984,46.8156013,58.0468979,45.0726013,56.6529007,43.6795998z M55.0425072,51.1262016   l-1.8404083-1.8404007c-0.7193985-0.7175026-1.6748009-1.1132011-2.6904984-1.1132011   c-1.0002022,0-1.9799004,0.4054985-2.6895027,1.1142006l-1.4377975,1.4386978   c-0.7262993,0.7253036-1.1259003,1.690403-1.1259003,2.7168007c0,1.0265007,0.399601,1.9925003,1.1268997,2.7198029   l1.8101006,1.8091965l-2.4300995,2.4302025c-1.3549995-0.4542999-2.5931015-1.218502-3.6049004-2.2303009   c-2.9858017-2.9859009-3.5736008-7.6074982-1.4281006-11.2377014l0.3928986-0.6666985l-6.3761978-6.3762016   c-0.0750999-0.0750999-0.0750999-0.1968994,0-0.2729988l1.8101997-1.8101997   c0.0700989-0.0700989,0.1646996-0.1091003,0.2650986-0.1091003c0.1004028,0,0.1930008,0.038002,0.2642059,0.1091003   l6.2475967,6.2485008L44.0028,43.6621017c3.6321983-2.1465034,8.2517052-1.5577011,11.2384987,1.4291   c1.0129013,1.0127983,1.776207,2.2487984,2.2304001,3.6037979L55.0425072,51.1262016z" fill="#91DC5A"/>
	<path d="M16.0385056,24.0587006l5.1722946,5.1732998c0.462101,0.4620991,1.0704002,0.6931,1.6777058,0.6931   c0.6072941,0,1.2135944-0.2310009,1.6756935-0.6931l1.6318016-1.6317997c0.9503994-0.9504013,0.9513988-2.4994011,0-3.4538002   l-5.1236-5.1215c2.1543999-4.2980003,1.3354988-9.5347004-2.1104012-12.9806004   C17.5680008,4.6513,15.8250008,3.6443,13.9222002,3.1345L13.3656006,2.9854L9.3991003,6.9519v1.4115005L11.9531002,10.9164   c0.3392,0.3392,0.5254059,0.7895002,0.5254059,1.2692003c0,0.4785995-0.1862059,0.9289999-0.5264053,1.2691994   l-1.5304003,1.5304003c-0.6531,0.6531-1.7917995,0.6541004-2.4467998-0.0009003l-2.5988998-2.5988998H3.9645057   l-3.964505,3.9655008l0.1492,0.5565987c0.5108,1.9048004,1.5167999,3.6478004,2.9097998,5.0417004   C6.5049005,25.3932991,11.7396002,26.2131004,16.0385056,24.0587006z M2.2411008,16.9328995l2.4291997-2.4301996   l1.8931003,1.8930998c1.4105,1.4104996,3.8670001,1.4076004,5.2697997,0.0009003l1.5313997-1.5313997   c1.4778004-1.4778004,1.4778004-3.8825998,0-5.3605003l-1.8481998-1.8471999l2.4312-2.4310999   c1.3540001,0.4531999,2.5899992,1.2174997,3.6027994,2.2293c2.9868011,2.9868002,3.5747013,7.6092997,1.4291058,11.2394991   l-0.3938046,0.6668015l6.1978054,6.1948986c0.1734943,0.1745014,0.1744938,0.4582005,0,0.6326008l-1.6299057,1.6299   c-0.1462002,0.1462994-0.3859997,0.1462994-0.5321999,0l-6.2455997-6.2465l-0.6667004,0.3927994   c-3.6322002,2.1465015-8.2528,1.5568008-11.238595-1.4280987C3.4586008,19.5249004,2.6953008,18.2879009,2.2411008,16.9328995z" fill="#91DC5A"/>
</g>
<g>
</g>
<g>
</g>
<g>
</g>
<g>
</g>
<g>
</g>
<g>
</g>
<g>
</g>
<g>
</g>
<g>
</g>
<g>
</g>
<g>
</g>
<g>
</g>
<g>
</g>
<g>
</g>
<g>
</g>
</svg>
